<mxfile host="app.diagrams.net" agent="Mozilla/5.0 (Macintosh; Intel Mac OS X 10_15_7) AppleWebKit/537.36 (KHTML, like Gecko) Chrome/135.0.0.0 Safari/537.36" version="27.1.6">
  <diagram name="第 1 页" id="L8qr6TQWqt2X9JVQx4vZ">
    <mxGraphModel dx="976" dy="663" grid="1" gridSize="10" guides="1" tooltips="1" connect="1" arrows="1" fold="1" page="1" pageScale="1" pageWidth="827" pageHeight="1169" math="0" shadow="0">
      <root>
        <mxCell id="0" />
        <mxCell id="1" parent="0" />
        <mxCell id="yCZR7ynTBGqF_OfOwiEY-2" value="&lt;font style=&quot;font-size: 18px;&quot;&gt;sugov_update_single_freq&lt;/font&gt;" style="rounded=1;whiteSpace=wrap;html=1;" vertex="1" parent="1">
          <mxGeometry x="847" y="250" width="233" height="40" as="geometry" />
        </mxCell>
        <mxCell id="yCZR7ynTBGqF_OfOwiEY-3" value="&lt;font style=&quot;font-size: 18px;&quot;&gt;sugov_update_single_perf&lt;/font&gt;" style="rounded=1;whiteSpace=wrap;html=1;" vertex="1" parent="1">
          <mxGeometry x="847" y="350" width="220" height="40" as="geometry" />
        </mxCell>
        <mxCell id="yCZR7ynTBGqF_OfOwiEY-5" style="edgeStyle=orthogonalEdgeStyle;rounded=0;orthogonalLoop=1;jettySize=auto;html=1;exitX=1;exitY=0.5;exitDx=0;exitDy=0;entryX=0;entryY=0.5;entryDx=0;entryDy=0;" edge="1" parent="1" source="yCZR7ynTBGqF_OfOwiEY-4" target="yCZR7ynTBGqF_OfOwiEY-2">
          <mxGeometry relative="1" as="geometry" />
        </mxCell>
        <mxCell id="yCZR7ynTBGqF_OfOwiEY-6" style="edgeStyle=orthogonalEdgeStyle;rounded=0;orthogonalLoop=1;jettySize=auto;html=1;exitX=1;exitY=0.5;exitDx=0;exitDy=0;entryX=0;entryY=0.5;entryDx=0;entryDy=0;" edge="1" parent="1" source="yCZR7ynTBGqF_OfOwiEY-4" target="yCZR7ynTBGqF_OfOwiEY-3">
          <mxGeometry relative="1" as="geometry" />
        </mxCell>
        <mxCell id="yCZR7ynTBGqF_OfOwiEY-8" style="edgeStyle=orthogonalEdgeStyle;rounded=0;orthogonalLoop=1;jettySize=auto;html=1;exitX=1;exitY=0.5;exitDx=0;exitDy=0;entryX=0;entryY=0.5;entryDx=0;entryDy=0;" edge="1" parent="1" source="yCZR7ynTBGqF_OfOwiEY-4" target="yCZR7ynTBGqF_OfOwiEY-7">
          <mxGeometry relative="1" as="geometry" />
        </mxCell>
        <mxCell id="yCZR7ynTBGqF_OfOwiEY-4" value="&lt;font style=&quot;font-size: 18px;&quot;&gt;cpufreq_update_util&lt;/font&gt;" style="rounded=1;whiteSpace=wrap;html=1;" vertex="1" parent="1">
          <mxGeometry x="600" y="350" width="170" height="40" as="geometry" />
        </mxCell>
        <mxCell id="yCZR7ynTBGqF_OfOwiEY-7" value="&lt;font style=&quot;font-size: 18px;&quot;&gt;sugov_update_shared&lt;/font&gt;" style="rounded=1;whiteSpace=wrap;html=1;" vertex="1" parent="1">
          <mxGeometry x="847" y="450" width="195" height="40" as="geometry" />
        </mxCell>
      </root>
    </mxGraphModel>
  </diagram>
</mxfile>
